<svg width="101" height="100" viewBox="0 0 101 100" fill="none" xmlns="http://www.w3.org/2000/svg">
<path d="M20.4697 32.9117C20.3751 32.7922 20.286 32.6797 20.286 32.5672C24.1828 32.0202 27.7227 30.0031 30.1802 26.9294C31.6391 24.5598 32.5285 21.884 32.7786 19.1125L32.8094 18.928C32.9993 17.7862 33.1948 16.611 33.4982 15.4539C35.9768 4.5782 43.972 0.339866 50.1084 0H50.3882C59.0031 0 63.7203 7.49705 65.0795 10.176C63.8829 10.7101 62.7271 11.3316 61.6216 12.0353C61.0819 12.3551 60.5622 12.695 60.0825 13.0149C59.3029 11.5155 55.9649 5.75773 50.3283 5.75773C48.7092 5.8577 41.2736 6.8573 39.0749 16.7334C38.8467 17.6287 38.6802 18.5857 38.5077 19.5772L38.5071 19.5805L38.5029 19.6049C38.4805 19.7334 38.458 19.8625 38.4353 19.9921C38.0713 23.6429 36.8524 27.1565 34.8774 30.2481C32.1278 33.956 28.1799 36.5979 23.704 37.7252L22.3648 35.7259C22.2615 35.5773 22.1586 35.4303 22.0567 35.2845C21.5276 34.528 21.0216 33.8045 20.5859 33.067C20.5503 33.0137 20.5095 32.9621 20.4697 32.9117Z" fill="white"/>
<path d="M19.6895 47.7205C19.0235 45.0221 17.7597 42.5078 15.9917 40.3634C15.2721 39.3838 14.5326 38.3642 13.9929 37.2646C7.99643 27.8683 10.5949 19.1718 14.7324 14.5536C20.8088 8.31603 29.5437 10.2952 32.442 11.1949C31.9777 12.4187 31.6036 13.6749 31.3226 14.9534C31.1792 15.5093 31.0679 16.0491 30.96 16.5728L30.9229 16.7527C29.3838 16.2329 22.9276 14.5336 18.93 18.532C17.8506 19.7515 13.3133 25.7292 18.7301 34.2658C19.171 34.9746 19.6616 35.6835 20.1725 36.4216L20.1731 36.4225C20.3105 36.6209 20.4493 36.8215 20.589 37.0247C22.8845 39.8315 24.4868 43.1395 25.2662 46.6809C25.9494 51.2473 25.0313 55.9095 22.6677 59.8757L20.3491 59.4759L20.2452 59.4573C19.1666 59.2648 18.1799 59.0886 17.231 58.8561L16.6713 58.7162C19.0512 55.5743 20.1319 51.6374 19.6895 47.7205Z" fill="white"/>
<path d="M19.1087 67.2921C21.8842 67.5765 24.5576 68.4929 26.9241 69.9711C30.0209 72.4518 32.0403 76.033 32.5607 79.9671L33.0604 79.6672C33.9197 79.1399 34.7598 78.5553 35.6554 77.9321L35.7189 77.8879C35.9137 77.7524 36.0825 77.6339 36.2346 77.5271C36.8003 77.13 37.1348 76.8951 37.7177 76.5485C36.5906 72.0717 33.9493 68.1231 30.2421 65.3729C27.1682 63.3289 23.6546 62.041 19.9882 61.6144C19.8493 61.59 19.711 61.5659 19.5734 61.542C18.5821 61.3694 17.6253 61.2028 16.7301 60.9746C6.85594 58.7955 5.85653 51.3584 5.75659 49.719C5.75659 44.0613 11.5132 40.7226 13.0123 39.9429C12.9164 39.793 12.8187 39.6432 12.7203 39.4922L12.719 39.4902L12.7177 39.4883C12.4888 39.1372 12.2559 38.7799 12.0329 38.4035C11.3334 37.2954 10.7122 36.1397 10.174 34.9449C7.47558 36.3443 0 41.1024 0 49.819V49.9789C0.339799 56.1365 4.57729 64.1733 15.4509 66.6124C16.4162 66.8181 17.4441 66.9988 18.3859 67.1644C18.6337 67.208 18.8755 67.2505 19.1087 67.2921Z" fill="white"/>
<path d="M47.7119 80.3888C45.0095 81.0537 42.4941 82.3254 40.3562 84.1073C39.3768 84.807 38.3574 85.5268 37.2181 86.2065C33.9141 88.4189 30.0403 89.6271 26.0647 89.6851C21.8286 89.6998 17.7334 88.1638 14.5515 85.3668C8.31518 79.2692 10.294 70.5327 11.1935 67.6338C12.4255 68.0987 13.6877 68.4794 14.9712 68.7734L16.7502 69.1532C16.2305 70.7126 14.5315 77.15 18.5291 81.1485C19.7484 82.228 25.7249 86.7863 34.2598 81.3484C35.1374 80.8218 36.0149 80.2 36.9481 79.5388L37.0182 79.4891C39.8292 77.2007 43.1347 75.599 46.6725 74.811C51.2403 74.1336 55.9017 75.059 59.8647 77.4299L59.7891 77.8497C59.6749 78.4829 59.5632 79.1027 59.4649 79.709L59.399 80.0928C59.2279 81.0925 59.076 81.9802 58.8453 82.8678C58.808 83.05 58.7613 83.2302 58.7053 83.4076C55.555 81.0457 51.6263 79.9668 47.7119 80.3888Z" fill="white"/>
<path d="M79.7712 67.4928L79.4714 67.013C78.9317 66.1333 78.3321 65.2737 77.6725 64.374C77.0129 63.4744 76.793 63.1145 76.3533 62.3748C71.8745 63.5073 67.9262 66.1565 65.1799 69.8719C63.2232 72.9154 61.9985 76.3712 61.602 79.9679L61.5621 80.1998C61.3777 81.2719 61.2048 82.2766 60.9624 83.2466C58.7837 93.1227 51.3481 94.1423 49.709 94.2423C44.0524 94.2423 40.7144 88.4645 39.9348 86.9651L38.3957 87.9647C37.2882 88.6591 36.1326 89.2738 34.9378 89.804C36.3369 92.463 41.0542 100 49.6691 100H49.9689C56.1252 99.6801 64.1605 95.4418 66.599 84.5661C66.8988 83.3266 67.1187 82.087 67.3186 80.8875C67.6058 78.1368 68.5075 75.4858 69.957 73.1306C72.4004 70.0805 75.906 68.0667 79.7712 67.4928Z" fill="white"/>
<path d="M80.3715 52.3422C81.0249 55.0493 82.2975 57.5678 84.0893 59.6993L84.1862 59.8377C84.8551 60.7931 85.5399 61.7711 86.1881 62.8581C92.1645 72.2744 89.4661 80.9509 85.3486 85.5291C83.899 86.9758 82.1688 88.1105 80.2645 88.8634C78.3601 89.6164 76.3219 89.9717 74.2751 89.9074C72.0176 89.8874 69.7752 89.5372 67.6191 88.8678C68.084 87.6424 68.4646 86.3866 68.7584 85.1093C68.8982 84.5099 69.0181 83.9104 69.138 83.311C70.6971 83.8308 77.1335 85.5491 81.1311 81.5507C82.2104 80.3312 86.7677 74.3535 81.331 65.8169C80.7913 64.8973 80.1517 63.9976 79.4721 63.058C77.1838 60.239 75.5826 56.9263 74.7948 53.3818C74.1176 48.8131 75.0428 44.1507 77.4133 40.187L79.7319 40.6068C80.8512 40.7868 81.8507 40.9667 82.8501 41.2066L83.3897 41.3465C81.0319 44.4992 79.9537 48.4273 80.3715 52.3422Z" fill="white"/>
<path d="M81.1203 32.8165L80.9309 32.7849C78.1616 32.527 75.4881 31.6379 73.1156 30.186C70.0502 27.7213 68.0354 24.184 67.4789 20.2899L66.9992 20.5697C66.2618 21.0056 65.5385 21.5116 64.7821 22.0409C64.6363 22.1428 64.4893 22.2457 64.3408 22.3491L64.2293 22.4282C63.6443 22.8438 63.0372 23.275 62.3419 23.6885C63.4742 28.1681 66.1229 32.1172 69.8375 34.8641C72.8857 36.8254 76.3483 38.0506 79.9515 38.4427L80.1834 38.4827C81.2553 38.6671 82.2598 38.84 83.2296 39.0825C93.1037 41.2816 94.1231 48.7187 94.2231 50.338C94.2231 56.0158 88.4665 59.3545 86.9474 60.1142C87.2238 60.5207 87.487 60.9406 87.7585 61.3736L87.8181 61.4687C87.8607 61.5367 87.9036 61.605 87.9468 61.6736C88.6992 62.7814 89.3674 63.9442 89.9456 65.1522C92.624 63.7328 100.2 58.9546 100.1 50.2381V50.1181C99.7198 43.9805 95.4823 35.9837 84.6088 33.5047C83.4346 33.2016 82.2605 33.0062 81.1203 32.8165Z" fill="white"/>
<path d="M52.3277 19.6927C55.0287 19.035 57.5443 17.7701 59.6833 15.9942C60.6827 15.2545 61.7021 14.5347 62.7815 13.995C72.1959 7.99731 80.8708 10.5963 85.508 14.7147C91.7244 20.8123 89.7455 29.5488 88.8461 32.4477C87.6235 31.9804 86.3673 31.6061 85.0883 31.3281C84.4886 31.1682 83.889 31.0482 83.2894 30.9283C83.809 29.3889 85.528 22.9314 81.5304 18.933C80.3111 17.8534 74.3346 13.3152 65.7997 18.7331C64.9533 19.2484 64.1239 19.8314 63.2646 20.4355C63.1904 20.4876 63.116 20.5399 63.0413 20.5924C60.2229 22.881 56.9109 24.4826 53.3671 25.2705C48.8015 25.9539 44.1403 25.0356 40.1749 22.6715C40.2782 22.1678 40.3648 21.6724 40.4509 21.18C40.4981 20.9102 40.5451 20.6413 40.5946 20.3724C40.7745 19.2329 40.9544 18.2333 41.1943 17.2337C41.3342 17.0338 41.3342 16.8538 41.3342 16.6739C44.4791 19.0468 48.4123 20.1269 52.3277 19.6927Z" fill="white"/>
</svg>
